<?xml version="1.0" encoding="UTF-8"?><svg id="Capa_1" xmlns="http://www.w3.org/2000/svg" viewBox="0 0 1080 1080"><path d="M540.44,466.77c-40.42,0-73.3,32.88-73.3,73.3s32.88,73.3,73.3,73.3,73.3-32.88,73.3-73.3-32.88-73.3-73.3-73.3Z" style="fill:#005b6f;"/><path d="M605.52,378.02l53.44-117.2c-16.15-6.86-32.99-12.34-50.12-16.3l-25.78,126.2c7.64,1.92,15.18,4.38,22.46,7.3Z" style="fill:#005b6f;"/><path d="M582.88,709.25l25.81,126.2c17.1-3.96,33.93-9.45,50.09-16.32l-53.49-117.18c-7.27,2.93-14.8,5.39-22.42,7.31Z" style="fill:#005b6f;"/><path d="M482.96,837.75c17.24,3.28,34.85,5.06,52.42,5.31l-1.59-128.41-23.55-2.38-27.28,125.48Z" style="fill:#005b6f;"/><path d="M483.06,241.96l27.03,125.53,23.66-2.38,1.6-128.4c-17.5.24-35.08,2-52.29,5.25Z" style="fill:#005b6f;"/><path d="M722.89,782.03c13.99-10.56,27.11-22.38,39.05-35.15l-96.36-85.49c-5.5,5.66-11.42,10.99-17.64,15.87l74.94,104.77Z" style="fill:#005b6f;"/><path d="M723.15,298.01l-75.09,104.66c6.21,4.89,12.11,10.23,17.58,15.89l96.52-85.29c-11.94-12.83-25.05-24.68-39.02-35.25Z" style="fill:#005b6f;"/><path d="M250.33,450.82c-5.27,17.18-9.02,34.84-11.14,52.56l128.32,11.63c1.13-7.86,2.79-15.66,4.95-23.24l-122.13-40.95Z" style="fill:#005b6f;"/><path d="M311.69,340.6c-11.55,13.22-21.99,27.51-31.06,42.51l111.91,63.78c4.2-6.65,8.88-13.06,13.95-19.08l-94.8-87.21Z" style="fill:#005b6f;"/><path d="M412.2,814.91l51.31-118.16c-7.04-3.44-13.89-7.4-20.41-11.78l-76.57,103.58c14.4,10.08,29.75,18.94,45.68,26.35Z" style="fill:#005b6f;"/><path d="M372.38,587.91c-2.15-7.53-3.81-15.26-4.92-23.03l-128.21,12.48c2.16,17.43,5.86,34.76,11.02,51.56l122.11-41.01Z" style="fill:#005b6f;"/><path d="M366.8,291.17l76.39,103.71c6.57-4.4,13.46-8.37,20.53-11.83l-51.38-118.12c-15.86,7.4-31.17,16.22-45.54,26.24Z" style="fill:#005b6f;"/><path d="M406.46,652.01c-5.07-6.06-9.76-12.49-13.97-19.17l-111.94,63.73c9.05,14.98,19.45,29.25,30.94,42.46l94.97-87.02Z" style="fill:#005b6f;"/></svg>