<svg xmlns="http://www.w3.org/2000/svg" xmlns:xlink="http://www.w3.org/1999/xlink" width="1080" zoomAndPan="magnify" viewBox="0 0 810 809.999993" height="1080" preserveAspectRatio="xMidYMid meet" version="1.0"><defs><clipPath id="528dce7bbc"><path d="M 381 629 L 450 629 L 450 799.875 L 381 799.875 Z M 381 629 " clip-rule="nonzero"/></clipPath><clipPath id="6df71c76f7"><path d="M 381 10.125 L 450 10.125 L 450 181 L 381 181 Z M 381 10.125 " clip-rule="nonzero"/></clipPath><clipPath id="96796a75b2"><path d="M 596 563 L 744.964844 563 L 744.964844 721 L 596 721 Z M 596 563 " clip-rule="nonzero"/></clipPath><clipPath id="dab38222b8"><path d="M 596 90 L 744.964844 90 L 744.964844 248 L 596 248 Z M 596 90 " clip-rule="nonzero"/></clipPath><clipPath id="8de0c52ea4"><path d="M 64.714844 289 L 239 289 L 239 373 L 64.714844 373 Z M 64.714844 289 " clip-rule="nonzero"/></clipPath><clipPath id="e985cf2467"><path d="M 64.714844 437 L 238 437 L 238 521 L 64.714844 521 Z M 64.714844 437 " clip-rule="nonzero"/></clipPath></defs><path fill="#f4f4f4" d="M 456.570312 309.867188 C 403.984375 309.867188 361.226562 352.644531 361.226562 405.253906 C 361.226562 457.863281 403.984375 500.640625 456.570312 500.640625 C 509.15625 500.640625 551.914062 457.863281 551.914062 405.253906 C 551.914062 352.644531 509.15625 309.867188 456.570312 309.867188 Z M 456.570312 309.867188 " fill-opacity="1" fill-rule="nonzero"/><path fill="#f4f4f4" d="M 541.214844 194.382812 L 610.722656 41.871094 C 589.722656 32.949219 567.816406 25.816406 545.546875 20.644531 L 512.03125 184.878906 C 521.964844 187.390625 531.789062 190.558594 541.25 194.382812 Z M 541.214844 194.382812 " fill-opacity="1" fill-rule="nonzero"/><path fill="#f4f4f4" d="M 511.738281 625.410156 L 545.328125 789.644531 C 567.5625 784.476562 589.46875 777.339844 610.464844 768.421875 L 540.886719 615.945312 C 531.425781 619.769531 521.636719 622.972656 511.738281 625.449219 Z M 511.738281 625.410156 " fill-opacity="1" fill-rule="nonzero"/><g clip-path="url(#528dce7bbc)"><path fill="#f4f4f4" d="M 381.789062 792.632812 C 404.203125 796.890625 427.128906 799.222656 449.945312 799.546875 L 447.871094 632.4375 L 417.230469 629.34375 L 381.75 792.632812 Z M 381.789062 792.632812 " fill-opacity="1" fill-rule="nonzero"/></g><g clip-path="url(#6df71c76f7)"><path fill="#f4f4f4" d="M 381.933594 17.332031 L 417.085938 180.691406 L 447.871094 177.597656 L 449.945312 10.523438 C 427.167969 10.851562 404.3125 13.144531 381.933594 17.367188 Z M 381.933594 17.332031 " fill-opacity="1" fill-rule="nonzero"/></g><g clip-path="url(#96796a75b2)"><path fill="#f4f4f4" d="M 693.875 720.105469 C 712.070312 706.34375 729.136719 690.980469 744.675781 674.378906 L 619.34375 563.117188 C 612.210938 570.472656 604.5 577.425781 596.417969 583.761719 L 693.910156 720.105469 Z M 693.875 720.105469 " fill-opacity="1" fill-rule="nonzero"/></g><g clip-path="url(#dab38222b8)"><path fill="#f4f4f4" d="M 694.199219 90.257812 L 596.527344 226.457031 C 604.605469 232.828125 612.285156 239.746094 619.382812 247.136719 L 744.929688 136.128906 C 729.390625 119.417969 712.359375 104.019531 694.164062 90.257812 Z M 694.199219 90.257812 " fill-opacity="1" fill-rule="nonzero"/></g><g clip-path="url(#8de0c52ea4)"><path fill="#f4f4f4" d="M 79.199219 289.113281 C 72.359375 311.46875 67.480469 334.441406 64.714844 357.488281 L 231.640625 372.632812 C 233.09375 362.402344 235.277344 352.246094 238.082031 342.378906 Z M 79.199219 289.113281 " fill-opacity="1" fill-rule="nonzero"/></g><path fill="#f4f4f4" d="M 159.003906 145.667969 C 143.976562 162.890625 130.402344 181.457031 118.609375 200.972656 L 264.171875 283.980469 C 269.632812 275.316406 275.746094 266.980469 282.332031 259.152344 L 159.039062 145.667969 Z M 159.003906 145.667969 " fill-opacity="1" fill-rule="nonzero"/><path fill="#f4f4f4" d="M 289.753906 762.886719 L 356.496094 609.136719 C 347.324219 604.660156 338.445312 599.527344 329.929688 593.808594 L 230.328125 728.589844 C 249.070312 741.695312 269.011719 753.238281 289.753906 762.886719 Z M 289.753906 762.886719 " fill-opacity="1" fill-rule="nonzero"/><g clip-path="url(#e985cf2467)"><path fill="#f4f4f4" d="M 237.972656 467.511719 C 235.167969 457.71875 233.023438 447.667969 231.566406 437.546875 L 64.789062 453.785156 C 67.589844 476.46875 72.394531 499.003906 79.125 520.886719 Z M 237.972656 467.511719 " fill-opacity="1" fill-rule="nonzero"/></g><path fill="#f4f4f4" d="M 230.695312 81.375 L 330.078125 216.335938 C 338.628906 210.621094 347.582031 205.449219 356.785156 200.9375 L 289.9375 47.222656 C 269.304688 56.835938 249.398438 68.339844 230.695312 81.375 Z M 230.695312 81.375 " fill-opacity="1" fill-rule="nonzero"/><path fill="#f4f4f4" d="M 282.296875 550.921875 C 275.707031 543.058594 269.59375 534.683594 264.136719 525.980469 L 118.539062 608.917969 C 130.328125 628.433594 143.828125 647 158.785156 664.183594 L 282.332031 550.957031 Z M 282.296875 550.921875 " fill-opacity="1" fill-rule="nonzero"/></svg>